<svg width="32" height="32" viewBox="0 0 32 32" fill="none" xmlns="http://www.w3.org/2000/svg">
<path opacity="0.4" d="M28.1067 11.4399V20.5598C28.1067 22.0532 27.3067 23.4399 26.0133 24.1999L18.0933 28.7732C16.8 29.5199 15.2 29.5199 13.8933 28.7732L5.97334 24.1999C4.68 23.4532 3.88 22.0665 3.88 20.5598V11.4399C3.88 9.94655 4.68 8.55983 5.97334 7.79983L13.8933 3.2265C15.1867 2.47984 16.7867 2.47984 18.0933 3.2265L26.0133 7.79983C27.3067 8.55983 28.1067 9.93322 28.1067 11.4399Z" fill="#292D32"/>
<path d="M16.0001 15.9999C17.7159 15.9999 19.1068 14.609 19.1068 12.8932C19.1068 11.1775 17.7159 9.78662 16.0001 9.78662C14.2843 9.78662 12.8934 11.1775 12.8934 12.8932C12.8934 14.609 14.2843 15.9999 16.0001 15.9999Z" fill="#292D32"/>
<path d="M19.5733 22.2133C20.6533 22.2133 21.28 21.0134 20.68 20.12C19.7733 18.7734 18.0133 17.8667 16 17.8667C13.9867 17.8667 12.2267 18.7734 11.32 20.12C10.72 21.0134 11.3467 22.2133 12.4267 22.2133H19.5733Z" fill="#292D32"/>
</svg>
