<svg width="24" height="24" viewBox="0 0 24 24" fill="none" xmlns="http://www.w3.org/2000/svg">
<path d="M18.75 8.01001V10.11C18.31 10.05 17.81 10.02 17.25 10.01V8.01001C17.25 4.86001 16.36 2.76001 12 2.76001C7.64 2.76001 6.75 4.86001 6.75 8.01001V10.01C6.19 10.02 5.69 10.05 5.25 10.11V8.01001C5.25 5.11001 5.95 1.26001 12 1.26001C18.05 1.26001 18.75 5.11001 18.75 8.01001Z" fill="#2C2E30"/>
<path d="M22 15.01V17.01C22 21.01 21 22.01 17 22.01H7C3 22.01 2 21.01 2 17.01V15.01C2 11.67 2.7 10.42 5.25 10.11C5.69 10.05 6.19 10.02 6.75 10.01H17.25C17.81 10.02 18.31 10.05 18.75 10.11C21.3 10.42 22 11.67 22 15.01Z" fill="#B6B9BC"/>
<path d="M8 17.0101C7.87 17.0101 7.74 16.9801 7.62 16.9301C7.49 16.8801 7.39001 16.8101 7.29001 16.7201C7.11001 16.5301 7 16.2701 7 16.0101C7 15.8801 7.02999 15.7501 7.07999 15.6301C7.12999 15.5101 7.20001 15.4001 7.29001 15.3001C7.39001 15.2101 7.49 15.1401 7.62 15.0901C7.99 14.9301 8.42999 15.0201 8.70999 15.3001C8.79999 15.4001 8.87001 15.5101 8.92001 15.6301C8.97001 15.7501 9 15.8801 9 16.0101C9 16.2701 8.88999 16.5301 8.70999 16.7201C8.51999 16.9001 8.26 17.0101 8 17.0101Z" fill="#2C2E30"/>
<path d="M12 17.01C11.73 17.01 11.48 16.9 11.29 16.72C11.2 16.62 11.13 16.51 11.08 16.39C11.03 16.27 11 16.14 11 16.01C11 15.74 11.11 15.49 11.29 15.3C11.66 14.93 12.33 14.93 12.71 15.3C12.89 15.49 13 15.74 13 16.01C13 16.14 12.97 16.27 12.92 16.39C12.87 16.51 12.8 16.62 12.71 16.72C12.52 16.9 12.26 17.01 12 17.01Z" fill="#2C2E30"/>
<path d="M16 17.01C15.74 17.01 15.48 16.9 15.29 16.72C15.11 16.53 15 16.28 15 16.01C15 15.74 15.11 15.49 15.29 15.3C15.67 14.93 16.34 14.93 16.71 15.3C16.75 15.35 16.79 15.4 16.83 15.46C16.87 15.51 16.9 15.57 16.92 15.63C16.95 15.69 16.97 15.75 16.98 15.81C16.99 15.88 17 15.95 17 16.01C17 16.27 16.89 16.53 16.71 16.72C16.52 16.9 16.26 17.01 16 17.01Z" fill="#2C2E30"/>
</svg>
