<svg width="32" height="32" viewBox="0 0 32 32" fill="none" xmlns="http://www.w3.org/2000/svg">
<path opacity="0.4" d="M28.12 28.6665C28.12 29.0398 27.8267 29.3332 27.4533 29.3332H4.54667C4.17334 29.3332 3.88 29.0398 3.88 28.6665C3.88 23.1465 9.32 18.6665 16 18.6665C17.3733 18.6665 18.7067 18.8531 19.9333 19.2131C19.1467 20.1465 18.6667 21.3598 18.6667 22.6665C18.6667 23.6665 18.9466 24.6132 19.44 25.4132C19.7066 25.8665 20.0533 26.2798 20.4533 26.6265C21.3867 27.4798 22.6267 27.9998 24 27.9998C25.4933 27.9998 26.84 27.3865 27.8 26.3998C28.0133 27.1198 28.12 27.8798 28.12 28.6665Z" fill="#292D32"/>
<path d="M29.1733 21.3866C29.0399 20.8666 28.8266 20.3466 28.5333 19.8799C28.3333 19.5332 28.0666 19.1999 27.7733 18.8933C26.8133 17.9333 25.5599 17.4133 24.2799 17.3466C22.8266 17.2533 21.3466 17.7866 20.2266 18.8933C19.1733 19.9466 18.6399 21.3466 18.6666 22.7466C18.6799 24.0799 19.2133 25.4133 20.2266 26.44C20.9333 27.1466 21.7999 27.6133 22.7199 27.8266C23.2266 27.9599 23.7599 28.0133 24.2933 27.9733C25.5599 27.9199 26.7999 27.4133 27.7733 26.44C29.1466 25.0666 29.6133 23.1333 29.1733 21.3866ZM26.1333 24.7999C25.7466 25.1866 25.1066 25.1866 24.7199 24.7999L23.9866 24.0666L23.2799 24.7733C22.8933 25.16 22.2533 25.16 21.8666 24.7733C21.4799 24.3733 21.4799 23.7466 21.8666 23.36L22.5733 22.6533L21.8933 21.9866C21.5066 21.5866 21.5066 20.9599 21.8933 20.5599C22.2933 20.1733 22.9199 20.1733 23.3199 20.5599L23.9866 21.2399L24.6933 20.5333C25.0799 20.1466 25.7066 20.1466 26.1066 20.5333C26.4933 20.92 26.4933 21.56 26.1066 21.9466L25.3999 22.6533L26.1333 23.3866C26.5199 23.7733 26.5199 24.4133 26.1333 24.7999Z" fill="#292D32"/>
<path d="M16 15.9998C19.6819 15.9998 22.6667 13.0151 22.6667 9.33317C22.6667 5.65127 19.6819 2.6665 16 2.6665C12.3181 2.6665 9.33337 5.65127 9.33337 9.33317C9.33337 13.0151 12.3181 15.9998 16 15.9998Z" fill="#292D32"/>
</svg>
