<svg width="24" height="24" viewBox="0 0 24 24" fill="none" xmlns="http://www.w3.org/2000/svg">
<path d="M9 7.21001V16.8C9 20.01 11 22.01 14.2 22.01H16.79C19.99 22.01 21.99 20.01 21.99 16.81V7.21001C22 4.01001 20 2.01001 16.8 2.01001H14.2C11 2.01001 9 4.01001 9 7.21001Z" fill="#B6B9BC"/>
<path d="M5.56994 8.13003L2.21994 11.48C1.92994 11.77 1.92994 12.25 2.21994 12.54L5.56994 15.89C5.85994 16.18 6.33994 16.18 6.62994 15.89C6.91994 15.6 6.91994 15.12 6.62994 14.83L4.55994 12.76H15.2499C15.6599 12.76 15.9999 12.42 15.9999 12.01C15.9999 11.6 15.6599 11.26 15.2499 11.26H4.55994L6.62994 9.19003C6.77994 9.04003 6.84994 8.85003 6.84994 8.66003C6.84994 8.47003 6.77994 8.27003 6.62994 8.13003C6.33994 7.83003 5.86994 7.83003 5.56994 8.13003Z" fill="#2C2E30"/>
</svg>
