<svg width="101" height="14" viewBox="0 0 101 14" fill="none" xmlns="http://www.w3.org/2000/svg">
<path d="M4.36 14V8.46L4.22 6.22H4.48L5.24 8.46L7.24 13.2H11.8L13.8 8.46L14.56 6.22H14.82L14.68 8.46V14H18.44V0.6H13.34L11 6.16L9.74 9.62H9.48L8.16 6.16L5.7 0.6H0.6V14H4.36ZM23.063 14L24.103 11.52H30.463L31.483 14H35.803L30.003 0.6H24.623L18.843 14H23.063ZM26.303 6.26L27.163 4H27.423L28.303 6.26L29.083 8.14H25.523L26.303 6.26ZM40.3255 14L43.4055 9.64H43.6655L46.8855 14H51.8055L46.7655 7.5V7.24L51.8055 0.6H46.8855L43.8255 4.94H43.5655L40.3255 0.6H35.4055L40.4655 7.16V7.42L35.4055 14H40.3255ZM66.4945 14V10.62H58.7545V0.6H54.9945V14H66.4945ZM71.2545 14V0.6H67.4945V14H71.2545ZM82.4355 14L87.8155 0.6H83.2955L79.9155 10.2H79.6555L76.1955 0.6H71.6555L77.0355 14H82.4355ZM100.117 14V10.62H91.9772V8.94H99.8172V5.58H91.9772V3.98H100.117V0.6H88.2172V14H100.117Z" fill="#611D56"/>
</svg>
