<svg width="32" height="32" viewBox="0 0 32 32" fill="none" xmlns="http://www.w3.org/2000/svg">
<path opacity="0.4" d="M21.5866 2.6665H10.4133C5.55996 2.6665 2.66663 5.55984 2.66663 10.4132V21.5732C2.66663 26.4398 5.55996 29.3332 10.4133 29.3332H21.5733C26.4266 29.3332 29.32 26.4398 29.32 21.5865V10.4132C29.3333 5.55984 26.44 2.6665 21.5866 2.6665Z" fill="#292D32"/>
<path d="M19.0133 15.9998L17 15.2931V10.7731H17.48C18.56 10.7731 19.44 11.7198 19.44 12.8798C19.44 13.4264 19.8933 13.8798 20.44 13.8798C20.9866 13.8798 21.44 13.4264 21.44 12.8798C21.44 10.6131 19.6666 8.77309 17.48 8.77309H17V7.99976C17 7.45309 16.5466 6.99976 16 6.99976C15.4533 6.99976 15 7.45309 15 7.99976V8.77309H14.1333C12.16 8.77309 10.5466 10.4398 10.5466 12.4798C10.5466 14.8664 11.9333 15.6264 12.9866 15.9998L15 16.7064V21.2131H14.52C13.44 21.2131 12.56 20.2664 12.56 19.1064C12.56 18.5598 12.1066 18.1064 11.56 18.1064C11.0133 18.1064 10.56 18.5598 10.56 19.1064C10.56 21.3731 12.3333 23.2131 14.52 23.2131H15V23.9998C15 24.5464 15.4533 24.9998 16 24.9998C16.5466 24.9998 17 24.5464 17 23.9998V23.2264H17.8666C19.84 23.2264 21.4533 21.5598 21.4533 19.5198C21.44 17.1198 20.0533 16.3598 19.0133 15.9998ZM13.6533 14.1198C12.9733 13.8798 12.56 13.6531 12.56 12.4931C12.56 11.5464 13.2666 10.7864 14.1466 10.7864H15.0133V14.5998L13.6533 14.1198ZM17.8666 21.2264H17V17.4131L18.3466 17.8798C19.0266 18.1198 19.44 18.3464 19.44 19.5064C19.44 20.4531 18.7333 21.2264 17.8666 21.2264Z" fill="#292D32"/>
</svg>
