<svg width="16" height="16" viewBox="0 0 16 16" fill="none" xmlns="http://www.w3.org/2000/svg">
<path d="M10.26 3.47335L11.2 5.35335C11.3267 5.61335 11.6667 5.86002 11.9533 5.91335L13.6533 6.19335C14.74 6.37335 14.9933 7.16002 14.2133 7.94669L12.8867 9.27335C12.6667 9.49335 12.54 9.92669 12.6133 10.24L12.9933 11.88C13.2933 13.1734 12.6 13.68 11.46 13L9.86667 12.0534C9.58 11.88 9.1 11.88 8.81334 12.0534L7.22 13C6.08 13.6734 5.38667 13.1734 5.68667 11.88L6.06667 10.24C6.12667 9.92002 6 9.48669 5.78 9.26669L4.45334 7.94002C3.67334 7.16002 3.92667 6.37335 5.01334 6.18669L6.71334 5.90669C7 5.86002 7.34 5.60669 7.46667 5.34669L8.40667 3.46669C8.92 2.45335 9.74667 2.45336 10.26 3.47335Z" fill="#B6B9BC"/>
<path d="M5.33337 3.83325H1.33337C1.06004 3.83325 0.833374 3.60659 0.833374 3.33325C0.833374 3.05992 1.06004 2.83325 1.33337 2.83325H5.33337C5.60671 2.83325 5.83337 3.05992 5.83337 3.33325C5.83337 3.60659 5.60671 3.83325 5.33337 3.83325Z" fill="#B6B9BC"/>
<path d="M3.33337 13.1667H1.33337C1.06004 13.1667 0.833374 12.9401 0.833374 12.6667C0.833374 12.3934 1.06004 12.1667 1.33337 12.1667H3.33337C3.60671 12.1667 3.83337 12.3934 3.83337 12.6667C3.83337 12.9401 3.60671 13.1667 3.33337 13.1667Z" fill="#B6B9BC"/>
<path d="M2.00004 8.5H1.33337C1.06004 8.5 0.833374 8.27333 0.833374 8C0.833374 7.72667 1.06004 7.5 1.33337 7.5H2.00004C2.27337 7.5 2.50004 7.72667 2.50004 8C2.50004 8.27333 2.27337 8.5 2.00004 8.5Z" fill="#B6B9BC"/>
</svg>
