<svg width="32" height="32" viewBox="0 0 32 32" fill="none" xmlns="http://www.w3.org/2000/svg">
<path d="M29.3337 7.99995V11.2266C29.3337 13.3333 28.0004 14.6666 25.8937 14.6666H21.3337V5.34661C21.3337 3.86661 22.5471 2.65328 24.0271 2.66661C25.4804 2.67995 26.8137 3.26661 27.7737 4.22661C28.7337 5.19995 29.3337 6.53328 29.3337 7.99995Z" fill="#292D32"/>
<path opacity="0.4" d="M2.66687 9.33317V27.9998C2.66687 29.1065 3.9202 29.7332 4.8002 29.0665L7.0802 27.3598C7.61354 26.9598 8.3602 27.0132 8.8402 27.4932L11.0535 29.7198C11.5735 30.2398 12.4269 30.2398 12.9469 29.7198L15.1869 27.4798C15.6535 27.0132 16.4002 26.9598 16.9202 27.3598L19.2002 29.0665C20.0802 29.7198 21.3335 29.0932 21.3335 27.9998V5.33317C21.3335 3.8665 22.5335 2.6665 24.0002 2.6665H9.33354H8.0002C4.0002 2.6665 2.66687 5.05317 2.66687 7.99984V9.33317Z" fill="#292D32"/>
<path d="M16 16.3464H12C11.4533 16.3464 11 16.7998 11 17.3464C11 17.8931 11.4533 18.3464 12 18.3464H16C16.5467 18.3464 17 17.8931 17 17.3464C17 16.7998 16.5467 16.3464 16 16.3464Z" fill="#292D32"/>
<path d="M12 13.0129H16C16.5467 13.0129 17 12.5596 17 12.0129C17 11.4663 16.5467 11.0129 16 11.0129H12C11.4533 11.0129 11 11.4663 11 12.0129C11 12.5596 11.4533 13.0129 12 13.0129Z" fill="#292D32"/>
<path d="M7.96029 10.6799C7.21362 10.6799 6.62695 11.2799 6.62695 12.0133C6.62695 12.7466 7.22695 13.3466 7.96029 13.3466C8.69362 13.3466 9.29362 12.7466 9.29362 12.0133C9.29362 11.2799 8.69362 10.6799 7.96029 10.6799Z" fill="#292D32"/>
<path d="M7.96029 16.0129C7.21362 16.0129 6.62695 16.6129 6.62695 17.3463C6.62695 18.0796 7.22695 18.6796 7.96029 18.6796C8.69362 18.6796 9.29362 18.0796 9.29362 17.3463C9.29362 16.6129 8.69362 16.0129 7.96029 16.0129Z" fill="#292D32"/>
</svg>
