<svg width="60" height="61" viewBox="0 0 60 61" fill="none" xmlns="http://www.w3.org/2000/svg">
<g clip-path="url(#clip0_1862_354)">
<path d="M59.0313 33.6873C57.5576 31.2054 55.4758 29.1399 52.9823 27.6857C50.4157 26.1916 47.4814 25.4014 44.4963 25.4014C41.5113 25.4014 38.577 26.1916 36.0103 27.6857C33.5169 29.14 31.4352 31.2055 29.9614 33.6873C28.6874 35.837 28.6682 38.4216 29.9105 40.6019C31.1654 42.8051 33.4253 44.1199 35.9554 44.1199H53.0373C55.5678 44.1199 57.8273 42.8047 59.0825 40.6019C60.3244 38.4216 60.3052 35.837 59.0313 33.6873Z" fill="#19CFFC"/>
<path d="M52.9826 27.6836C50.4164 26.189 47.4817 25.3989 44.4966 25.3989H44.4961V44.1178H53.0375C55.5681 44.1178 57.8276 42.8027 59.0823 40.5998C60.3247 38.4195 60.3055 35.8346 59.0314 33.6854C57.5581 31.2032 55.4762 29.1376 52.9826 27.6836Z" fill="#4AB8F7"/>
<path d="M51.2006 12.8778C49.4094 11.0866 47.0281 10.1001 44.4948 10.1001C41.9615 10.1001 39.5803 11.0866 37.7895 12.8778C35.9982 14.669 35.0117 17.0504 35.0117 19.5831C35.0117 22.1164 35.9982 24.4976 37.7895 26.289C39.5802 28.0802 41.9615 29.0667 44.4948 29.0667C47.0281 29.0667 49.4094 28.0802 51.2006 26.289C52.9918 24.4976 53.9783 22.1164 53.9783 19.5831C53.9783 17.0504 52.9918 14.669 51.2006 12.8778Z" fill="#FFD2BF"/>
<path d="M51.2024 12.8757C49.3535 11.0267 46.925 10.1025 44.4961 10.1025V29.06H44.4966C46.925 29.06 49.3535 28.1356 51.2024 26.2867C54.8996 22.5894 54.8996 16.573 51.2024 12.8757Z" fill="#FFB89C"/>
<path d="M30.0391 33.6873C28.5654 31.2054 26.4836 29.1399 23.9902 27.6857C21.4239 26.1916 18.4892 25.4014 15.5042 25.4014C12.5191 25.4014 9.5848 26.1916 7.01816 27.6857C4.52485 29.14 2.44311 31.2054 0.969294 33.6872C-0.304768 35.8364 -0.323987 38.4215 0.918435 40.6018C2.17316 42.8045 4.43312 44.1197 6.9632 44.1197H24.0456C26.5757 44.1197 28.8351 42.805 30.0904 40.6018C31.3322 38.422 31.313 35.837 30.0391 33.6873Z" fill="#27488F"/>
<path d="M23.9904 27.6836C21.4241 26.189 18.4894 25.3989 15.5044 25.3989H15.5039V44.1178H24.0454C26.5758 44.1178 28.8354 42.8027 30.0901 40.5998C31.3324 38.4195 31.3132 35.8346 30.0393 33.6854C28.5659 31.2032 26.484 29.1376 23.9904 27.6836Z" fill="#12254C"/>
<path d="M22.2083 12.8778C20.4171 11.0866 18.0358 10.1001 15.5026 10.1001C12.9698 10.1001 10.588 11.0866 8.79723 12.8778C7.00602 14.669 6.01953 17.0505 6.01953 19.5831C6.01953 22.1164 7.00602 24.4976 8.79723 26.289C10.588 28.0802 12.9698 29.0667 15.5026 29.0667C18.0358 29.0667 20.4171 28.0802 22.2083 26.289C23.9996 24.4976 24.9861 22.1164 24.9861 19.5831C24.9861 17.0504 23.9996 14.669 22.2083 12.8778Z" fill="#FFD2BF"/>
<path d="M22.2101 12.8757C20.3612 11.0267 17.9327 10.1025 15.5039 10.1025V29.06H15.5044C17.9327 29.06 20.3612 28.1356 22.2101 26.2867C25.9075 22.5894 25.9075 16.573 22.2101 12.8757Z" fill="#FFB89C"/>
<path d="M44.5346 41.2142C43.0614 38.732 40.9797 36.6664 38.4862 35.2124C35.9196 33.7178 32.9853 32.9282 30.0002 32.9282C27.0151 32.9282 24.0803 33.7178 21.5142 35.2124C19.0205 36.6664 16.9387 38.732 15.4653 41.2142C14.1914 43.3634 14.1721 45.9483 15.4144 48.1287C16.6692 50.3315 18.9287 51.6467 21.4592 51.6467H38.5412C41.0712 51.6467 43.3312 50.3315 44.5859 48.1287C45.8279 45.9483 45.809 43.3634 44.5346 41.2142Z" fill="#FE6A16"/>
<path d="M38.4865 35.2124C35.9198 33.7178 32.9856 32.9277 30.0005 32.9277H30V51.6465H38.5414C41.0715 51.6465 43.3315 50.3314 44.5862 48.1285C45.828 45.9482 45.8093 43.3633 44.5349 41.2141C43.0617 38.7319 40.98 36.6664 38.4865 35.2124Z" fill="#FF432E"/>
<path d="M36.7041 20.4044C33.0063 16.707 26.9903 16.707 23.2925 20.4044C19.5952 24.1017 19.5952 30.1181 23.2925 33.8154C25.1415 35.6643 27.5698 36.5886 29.9983 36.5886C32.4268 36.5886 34.8551 35.6643 36.7041 33.8154C40.4014 30.1182 40.4014 24.1018 36.7041 20.4044Z" fill="#FFD2BF"/>
<path d="M36.7063 20.4045C34.8573 18.5555 32.4285 17.6313 30 17.6313V36.5888H30.0005C32.4289 36.5888 34.8573 35.6644 36.7063 33.8155C40.4036 30.1183 40.4036 24.1019 36.7063 20.4045Z" fill="#FFB89C"/>
</g>
<defs>
<clipPath id="clip0_1862_354">
<rect width="60" height="60" fill="white" transform="translate(0 0.5)"/>
</clipPath>
</defs>
</svg>
